# xmcd
#
# Track frame offsets:
#	150
#	14750
#	27817
#	40580
#	52855
#	66635
#	79840
#	93135
#	107185
#	121812
#	135865
#	150760
#	165152
#	179615
#	194870
#	210412
#	223007
#	237737
#	253600
#	266142
#
# Disc length: 3708 seconds
# Revision: 0
# Processed by: cddbd v1.5.2PL0 Copyright (c) Steve Scherf et al.
# Submitted via: dBpowerAMP V12.0
#
DISCID=120e7a14
DTITLE=Charlie McFadden - 6041 -  1929-1937
DYEAR=1994
DGENRE=Blues
TTITLE0=Misunderstood Blues
TTITLE1=Don't Bite That Thing
TTITLE2=Broken Down Blues
TTITLE3=Weak-Eyed Blues
TTITLE4=Gambler's Blues
TTITLE5=Harvest Moon Blues
TTITLE6=People People Blues
TTITLE7=Groceries on the Shelf (Piggly Wiggly)
TTITLE8=Groceries on the Shelf No. 2
TTITLE9=Yellow Woman Blues
TTITLE10=Piggly Wiggly Blues
TTITLE11=People People Blues
TTITLE12=Friendless Man
TTITLE13=Times Are So Tight
TTITLE14=Low Down Rounders Blues
TTITLE15=Last Journey Blues
TTITLE16=Hold It Where You Got It
TTITLE17=Lonesome Ghost Blues
TTITLE18=Groceries on the Shelf (Piggly Wiggly)
TTITLE19=People People Blues
EXTD=
EXTT0=
EXTT1=
EXTT2=
EXTT3=
EXTT4=
EXTT5=
EXTT6=
EXTT7=
EXTT8=
EXTT9=
EXTT10=
EXTT11=
EXTT12=
EXTT13=
EXTT14=
EXTT15=
EXTT16=
EXTT17=
EXTT18=
EXTT19=
PLAYORDER=
